<?xml version="1.0" encoding="utf-8"?>
<!-- Generator: Adobe Illustrator 15.1.0, SVG Export Plug-In . SVG Version: 6.00 Build 0)  -->
<!DOCTYPE svg PUBLIC "-//W3C//DTD SVG 1.1//EN" "http://www.w3.org/Graphics/SVG/1.1/DTD/svg11.dtd">
<svg version="1.1" id="Layer_1" xmlns="http://www.w3.org/2000/svg" xmlns:xlink="http://www.w3.org/1999/xlink" x="0px" y="0px"
	 width="93.32px" height="100px" viewBox="0 0 93.32 100" enable-background="new 0 0 93.32 100" xml:space="preserve">
<polygon points="0,37.457 0,62.542 22.076,62.542 39.135,79.601 39.135,20.398 22.076,37.457 "/>
<path d="M63.217,50C63.217,50,63.217,50,63.217,50L63.217,50c0-0.001,0-0.001,0-0.002c-0.16-11.028-3.777-20.315-11.345-28.367
	c-2.663-2.834-6.913,1.431-4.257,4.257c6.487,6.903,9.443,14.674,9.581,24.111c-0.138,9.439-3.094,17.208-9.581,24.113
	c-2.656,2.826,1.594,7.092,4.257,4.256C59.439,70.317,63.057,61.03,63.217,50C63.217,50,63.217,50,63.217,50z"/>
<path d="M78.269,50C78.269,50,78.269,50,78.269,50L78.269,50c0-0.001,0-0.001,0-0.002c-0.208-14.764-5.27-28.018-15.477-38.723
	c-2.684-2.815-6.936,1.449-4.257,4.257C67.647,25.091,72.062,36.821,72.248,50c-0.186,13.179-4.601,24.91-13.713,34.468
	c-2.679,2.809,1.573,7.072,4.257,4.256C72.999,78.019,78.061,64.765,78.269,50C78.269,50,78.269,50,78.269,50z"/>
<path d="M93.32,50L93.32,50C93.32,50,93.32,50,93.32,50c-0.208-18.576-6.708-35.666-19.606-49.083
	c-2.694-2.804-6.946,1.459-4.257,4.257C81.258,17.45,87.109,33.004,87.3,50c-0.19,16.996-6.042,32.55-17.843,44.828
	c-2.689,2.797,1.562,7.059,4.257,4.256C86.612,85.665,93.112,68.577,93.32,50.001C93.32,50,93.32,50,93.32,50
	C93.32,50,93.32,50,93.32,50z"/>
</svg>
